<svg width="23" height="22" viewBox="0 0 23 22" fill="none" xmlns="http://www.w3.org/2000/svg">
<path d="M18.7561 12.3108C18.5251 12.2388 18.2751 12.2611 18.0604 12.3727C17.8458 12.4843 17.684 12.6762 17.6103 12.9067C17.1772 14.2308 16.3329 15.3821 15.2003 16.1933C14.0677 17.0044 12.7058 17.433 11.3128 17.4167C9.58975 17.4362 7.92929 16.7718 6.69549 15.5689C5.46169 14.366 4.75526 12.723 4.7311 11C4.75526 9.27704 5.46169 7.63399 6.69549 6.43112C7.92929 5.22825 9.58975 4.56375 11.3128 4.58333C12.8689 4.57957 14.3771 5.12124 15.5753 6.11417L13.5861 5.78417C13.4669 5.76455 13.345 5.76869 13.2274 5.79636C13.1098 5.82403 12.9988 5.87467 12.9008 5.94538C12.8028 6.01608 12.7198 6.10546 12.6565 6.20836C12.5932 6.31127 12.5509 6.42567 12.5319 6.545C12.5123 6.66421 12.5165 6.78613 12.5441 6.90374C12.5718 7.02135 12.6224 7.13233 12.6931 7.23029C12.7639 7.32826 12.8532 7.41128 12.9561 7.47459C13.059 7.53789 13.1734 7.58023 13.2928 7.59917L17.1794 8.24083H17.3353C17.4416 8.24071 17.547 8.2221 17.6469 8.18583C17.6805 8.17309 17.7116 8.15446 17.7386 8.13083C17.8043 8.10639 17.8661 8.07242 17.9219 8.03L18.0044 7.92917C18.0044 7.88333 18.0869 7.84667 18.1236 7.79167C18.1603 7.73667 18.1236 7.7 18.1694 7.66333C18.1948 7.60995 18.2162 7.55481 18.2336 7.49833L18.9211 3.83167C18.944 3.71129 18.9429 3.58758 18.918 3.46762C18.893 3.34765 18.8447 3.23377 18.7758 3.13247C18.7068 3.03118 18.6186 2.94446 18.5161 2.87726C18.4137 2.81006 18.299 2.7637 18.1786 2.74083C18.0582 2.71796 17.9345 2.71902 17.8145 2.74396C17.6946 2.7689 17.5807 2.81722 17.4794 2.88616C17.2748 3.02541 17.134 3.24022 17.0878 3.48333L16.8403 4.8125C15.3058 3.48264 13.3433 2.75039 11.3128 2.75C9.10354 2.73044 6.97678 3.5881 5.39917 5.13478C3.82156 6.68146 2.92196 8.79082 2.89777 11C2.92196 13.2092 3.82156 15.3185 5.39917 16.8652C6.97678 18.4119 9.10354 19.2696 11.3128 19.25C13.1031 19.2775 14.8551 18.7294 16.3106 17.6865C17.7661 16.6436 18.8482 15.1608 19.3978 13.4567C19.4325 13.3393 19.4435 13.2162 19.4299 13.0945C19.4163 12.9729 19.3785 12.8552 19.3187 12.7484C19.2589 12.6416 19.1783 12.5478 19.0816 12.4727C18.985 12.3975 18.8743 12.3425 18.7561 12.3108Z" fill="black"/>
</svg>
